# xmcd CD database file
#
# Track frame offsets:
#	150
#	13651
#	30793
#	46787
#	62523
#	77712
#	90736
#	102843
#	116075
#	130018
#	144085
#	156639
#	169853
#	185875
#	201223
#	217707
#	232421
#	249246
#	264552
#	278838
#	298589
#	311722
#
# Disc length: 4391 seconds
#
# Revision: 2
# Processed by: cddbd v1.5.2PL0 Copyright (c) Steve Scherf et al.
# Submitted via: CDex 1.51
#
DISCID=35112516
DTITLE=Lual Sertanejo - Vol 4
DYEAR=2010
DGENRE=Country
TTITLE0=estrela cadente - Victor e Léo
TTITLE1=Fã - Cristin e Cristiano
TTITLE2=A louca - Luan Santana e Fernando e Sorocaba
TTITLE3=Se o rei mandar - César Menotti e fabiano
TTITLE4=Princesa - Dom e juan
TTITLE5=Tempo e hora - Evandro e eduardo
TTITLE6=Idai - Guilherme e santiago
TTITLE7=Sem esse coração - Joao bosco e vinicios
TTITLE8=Cinderela - Léo e junior
TTITLE9=Cara errado - Leo magalhães e joao neto e frederico
TTITLE10=Voce do meu lado - Luan santana
TTITLE11=Curtição - Joao bosco e vinicius
TTITLE12=Pensa em mim - Lucas e luan part jorge e mateus
TTITLE13=Flecha do cupido - Marcos e mário
TTITLE14=Se vira - Maria cecilia e rodolfo part latino
TTITLE15=Cola em mim - Ricardo e eduardo part joao neto e frederico
TTITLE16=Livre, leve e solto - Roger e robson
TTITLE17=Tudo no olhar - Marcos e belutti
TTITLE18=Te amo, mas que posso dizer - Ulisses e moisés
TTITLE19=Meu primeiro amor - Zeze di camargo e luciano
TTITLE20=Fica nervoso não - Gino e geno
TTITLE21=Fã - Cristian e cristiano part fátima leão
EXTD=YEAR: 2010
EXTT0=
EXTT1=
EXTT2=
EXTT3=
EXTT4=
EXTT5=
EXTT6=
EXTT7=
EXTT8=
EXTT9=
EXTT10=
EXTT11=
EXTT12=
EXTT13=
EXTT14=
EXTT15=
EXTT16=
EXTT17=
EXTT18=
EXTT19=
EXTT20=
EXTT21=
PLAYORDER=
